<?xml version="1.0" standalone="no"?>
<!DOCTYPE svg PUBLIC "-//W3C//DTD SVG 20010904//EN"
 "http://www.w3.org/TR/2001/REC-SVG-20010904/DTD/svg10.dtd">
<svg version="1.0" xmlns="http://www.w3.org/2000/svg"
 width="700.000000pt" height="700.000000pt" viewBox="0 0 700.000000 700.000000"
 preserveAspectRatio="xMidYMid meet">
<metadata>
Created by potrace 1.14, written by Peter Selinger 2001-2017
</metadata>
<g transform="translate(0.000000,700.000000) scale(0.100000,-0.100000)"
fill="#000000" stroke="none">
<path d="M3361 6490 c-139 -29 -154 -37 -716 -373 -455 -273 -473 -284 -561
-372 -77 -77 -98 -105 -137 -185 -85 -173 -81 -132 -85 -867 l-3 -652 -570
-343 c-422 -253 -588 -358 -635 -401 -111 -102 -188 -229 -231 -378 -16 -59
-18 -113 -18 -659 0 -546 2 -600 18 -659 42 -147 119 -274 226 -374 44 -41
202 -141 561 -356 275 -165 525 -309 557 -321 177 -67 384 -66 553 2 73 29 85
36 668 386 277 166 507 302 512 302 4 0 248 -143 542 -319 592 -353 602 -359
708 -393 63 -19 96 -23 210 -23 114 0 147 4 210 23 106 34 123 43 644 356 338
203 486 297 533 340 113 103 188 228 229 381 18 65 19 112 19 660 0 541 -2
595 -18 654 -43 149 -120 276 -231 378 -47 43 -213 148 -635 401 l-570 343 -3
652 c-4 735 0 694 -85 867 -39 81 -60 109 -137 185 -88 87 -109 101 -561 371
-517 310 -539 322 -640 354 -79 25 -277 36 -354 20z m277 -379 c26 -10 253
-142 505 -293 l458 -276 -549 -331 -550 -331 -552 331 -552 331 459 275 c252
152 473 282 492 290 85 36 203 38 289 4z m-833 -1239 l510 -307 3 -588 c1
-335 -2 -587 -7 -585 -4 1 -252 149 -550 328 l-541 325 0 588 0 588 38 -21
c20 -12 267 -159 547 -328z m1975 -240 l0 -587 -541 -325 c-298 -179 -546
-327 -550 -328 -5 -2 -8 250 -7 585 l3 588 545 328 c299 180 546 327 547 327
2 0 3 -264 3 -588z m-2187 -1241 c398 -238 544 -331 535 -338 -7 -6 -254 -155
-549 -331 l-536 -321 -552 331 -551 331 548 329 c301 180 549 328 552 328 3 0
251 -148 553 -329z m2919 1 l548 -329 -551 -332 -550 -331 -537 321 c-295 177
-543 326 -550 332 -9 7 137 100 535 338 302 181 550 329 553 329 3 0 251 -148
552 -328z m-3652 -1895 l0 -588 -24 13 c-13 7 -223 132 -466 278 -294 176
-458 280 -488 310 -25 25 -59 74 -76 110 l-31 65 -3 527 -3 527 546 -327 545
-327 0 -588z m2385 905 l530 -318 3 -587 c1 -323 0 -587 -2 -587 -3 0 -250
147 -551 326 l-545 326 0 590 c0 558 1 588 18 579 9 -6 256 -153 547 -329z
m1983 -337 l-3 -380 -31 -65 c-17 -36 -51 -85 -76 -110 -30 -30 -198 -137
-503 -320 -251 -151 -461 -276 -466 -278 -5 -2 -9 250 -9 585 l0 588 543 326
542 325 3 -145 c1 -80 1 -317 0 -526z m-2908 81 l0 -583 -544 -327 c-299 -179
-547 -326 -550 -326 -4 0 -5 264 -4 587 l3 587 535 322 c294 177 541 323 548
323 9 1 12 -122 12 -583z"/>
</g>
</svg>
